<svg width="24" height="24" viewBox="0 0 24 24" fill="none" xmlns="http://www.w3.org/2000/svg">
<g clip-path="url(#clip0_39_762)">
<path d="M0.75 0.75V23.25H23.25V0.75H0.75ZM12.9945 18.2985C12.9945 20.4885 11.7105 21.4845 9.837 21.4845C8.1465 21.4845 7.16475 20.6085 6.666 19.5525L8.388 18.51C8.72025 19.092 9.0225 19.59 9.747 19.59C10.4415 19.59 10.8795 19.3253 10.8795 18.2625V11.0775H12.9945V18.2985ZM17.994 21.4845C16.0305 21.4845 14.7615 20.5485 14.1427 19.3245L15.864 18.3293C16.317 19.0628 16.9065 19.6117 17.949 19.6117C18.8242 19.6117 19.3762 19.1738 19.3762 18.5648C19.3762 17.8403 18.8018 17.5823 17.8358 17.166L17.3107 16.9335C15.7852 16.2847 14.7735 15.4687 14.7735 13.746C14.7735 12.1612 15.9765 10.9522 17.8695 10.9522C19.2135 10.9522 20.1795 11.421 20.8755 12.6427L19.233 13.6965C18.873 13.0515 18.4785 12.789 17.874 12.789C17.256 12.789 16.86 13.1805 16.86 13.6965C16.86 14.3355 17.25 14.5875 18.1575 14.979L18.6847 15.2115C20.4825 15.9765 21.495 16.764 21.495 18.534C21.5002 20.442 20.0055 21.4815 17.9963 21.4815L17.994 21.4845Z" fill="#F5DE19"/>
</g>
<defs>
<clipPath id="clip0_39_762">
<rect width="24" height="24" fill="white"/>
</clipPath>
</defs>
</svg>
