<svg width="42" height="28" viewBox="0 0 42 28" fill="none" xmlns="http://www.w3.org/2000/svg">
<path d="M21.1384 25.7164C25.5353 25.7164 29.0996 25.6158 29.0996 25.4916C29.0996 25.3675 25.5353 25.2669 21.1384 25.2669C16.7416 25.2669 13.1772 25.3675 13.1772 25.4916C13.1772 25.6158 16.7416 25.7164 21.1384 25.7164Z" fill="#D8DFEA"/>
<path d="M31.5151 4.59696V6.78183C31.5151 10.3303 28.639 13.2079 25.0925 13.2079H24.1934L25.1914 12.1784C28.1214 12.1257 30.4875 9.72495 30.4875 6.78183V5.11108H26.6339L26.7624 4.08293H31.0013C31.2851 4.08284 31.5151 4.31292 31.5151 4.59696Z" fill="#E8A615"/>
<path d="M24.4504 19.3986V20.5334H17.771V19.3986C17.771 19.3061 17.8211 19.22 17.902 19.175L18.4081 18.8897C19.2841 18.3962 19.8262 17.4696 19.8262 16.4632V15.2641H22.3952V16.4632C22.3952 17.4695 22.9373 18.3961 23.8133 18.8897L24.3194 19.175C24.4004 19.22 24.4504 19.3061 24.4504 19.3986Z" fill="#E8A615"/>
<path d="M24.4504 19.3986V20.5334H23.8081V19.3986C23.8081 19.3061 23.7581 19.22 23.6771 19.175L23.171 18.8897C22.295 18.3962 21.7529 17.4696 21.7529 16.4632V15.2641H22.3952V16.4632C22.3952 17.4695 22.9373 18.3961 23.8133 18.8897L24.3194 19.175C24.4003 19.22 24.4504 19.3061 24.4504 19.3986Z" fill="#B7791D"/>
<path d="M23.1659 14.2617V15.0071C23.1659 15.3618 22.8782 15.6497 22.5236 15.6497H19.6977C19.3432 15.6497 19.0554 15.3618 19.0554 15.0071V14.2617H23.1659Z" fill="#E8A615"/>
<path d="M22.3952 15.6497H19.8262V16.0276H22.3952V15.6497Z" fill="#B7791D"/>
<path d="M25.4778 20.2764V24.7746H16.7432V20.2764C16.7432 20.1351 16.8588 20.0194 17.0001 20.0194H25.2209C25.3622 20.0194 25.4778 20.1351 25.4778 20.2764Z" fill="#343B49"/>
<path d="M25.478 20.2764V24.7746H24.9642V20.2764C24.9642 20.1351 24.8486 20.0194 24.7073 20.0194H25.2211C25.3624 20.0194 25.478 20.1351 25.478 20.2764Z" fill="#262D38"/>
<path d="M26.2487 24.6461V25.1602C26.2487 25.3015 26.1331 25.4172 25.9918 25.4172H16.2296C16.0883 25.4172 15.9727 25.3015 15.9727 25.1602V24.6461C15.9727 24.5047 16.0883 24.3891 16.2296 24.3891H25.9918C26.1331 24.3891 26.2487 24.5047 26.2487 24.6461Z" fill="#262D38"/>
<path d="M26.2487 24.6461V25.1602C26.2487 25.3015 26.1331 25.4172 25.9918 25.4172H25.478C25.6193 25.4172 25.7349 25.3015 25.7349 25.1602V24.6461C25.7349 24.5047 25.6193 24.3891 25.478 24.3891H25.9918C26.1332 24.3891 26.2487 24.5047 26.2487 24.6461Z" fill="#171C23"/>
<path d="M24.1935 21.3046V23.1038C24.1935 23.2452 24.0778 23.3609 23.9366 23.3609H18.2847C18.1435 23.3609 18.0278 23.2452 18.0278 23.1038V21.3046C18.0278 21.1632 18.1435 21.0475 18.2847 21.0475H23.9366C24.0779 21.0475 24.1935 21.1632 24.1935 21.3046Z" fill="#E8A615"/>
<path d="M23.1658 14.2617V15.0071C23.1658 15.3618 22.8781 15.6497 22.5236 15.6497H22.0098C22.3643 15.6497 22.652 15.3618 22.652 15.0071V14.2617H23.1658Z" fill="#B7791D"/>
<path d="M18.4131 13.2078H17.1286C13.5821 13.2078 10.7061 10.3302 10.7061 6.78178V4.59696C10.7061 4.31292 10.936 4.08289 11.2199 4.08289H15.4588V5.11104H11.7337V6.78178C11.7337 9.72491 14.0997 12.1256 17.0297 12.1783L18.4131 13.2078Z" fill="#E8A615"/>
<path d="M27.4046 3.05469V3.56877C27.4046 9.81484 24.5864 14.8785 21.1105 14.8785C17.6346 14.8785 14.8164 9.81489 14.8164 3.56877V3.05469H27.4046Z" fill="#E8A615"/>
<path d="M14.8743 5.11104H14.3605C14.3348 4.77303 14.3181 4.4299 14.3091 4.08289H14.8229C14.8319 4.42986 14.8486 4.77303 14.8743 5.11104Z" fill="#B7791D"/>
<path d="M17.8171 13.2078H17.3033C17.0168 12.8916 16.7445 12.5344 16.4915 12.1411C16.6687 12.1629 16.8472 12.1745 17.0297 12.1783C17.2763 12.5575 17.5396 12.9019 17.8171 13.2078Z" fill="#B7791D"/>
<path d="M23.1658 14.2617V14.5187C22.521 14.9184 21.8299 15.1356 21.1106 15.1356C20.3913 15.1356 19.7002 14.9184 19.0554 14.5187V14.2617C19.7002 14.6614 20.3913 14.8786 21.1106 14.8786C21.8299 14.8786 22.521 14.6614 23.1658 14.2617Z" fill="#B7791D"/>
<path d="M27.4047 3.05469V3.56877C27.4047 9.61951 24.7599 14.5611 21.4343 14.8644C24.6662 14.5573 25.8633 9.61697 25.8633 3.56877V3.05469H27.4047Z" fill="#B7791D"/>
<path d="M28.0471 2.92618C28.0471 3.10355 27.9751 3.26419 27.8595 3.38113C27.7426 3.4968 27.5821 3.56877 27.4048 3.56877H14.8166C14.4621 3.56877 14.1743 3.28088 14.1743 2.92618C14.1743 2.7488 14.2462 2.58816 14.3619 2.47123C14.4788 2.35555 14.6393 2.28358 14.8166 2.28358H27.4048C27.7593 2.28358 28.0471 2.57147 28.0471 2.92618Z" fill="#E8A615"/>
<path d="M27.4046 3.56877C27.4046 3.74099 27.4021 3.91194 27.3982 4.08284H14.8228C14.819 3.91189 14.8164 3.74099 14.8164 3.56877H27.4046Z" fill="#B7791D"/>
<path d="M28.047 2.92618C28.047 3.10355 27.975 3.26419 27.8594 3.38113C27.7425 3.4968 27.582 3.56877 27.4047 3.56877H25.9917C26.169 3.56877 26.3295 3.4968 26.4464 3.38113C26.562 3.26419 26.634 3.1035 26.634 2.92618C26.634 2.57147 26.3463 2.28358 25.9917 2.28358H27.4047C27.7593 2.28358 28.047 2.57147 28.047 2.92618Z" fill="#B7791D"/>
<path d="M24.1933 21.3046V23.1038C24.1933 23.2452 24.0777 23.3609 23.9364 23.3609H18.8369C19.8748 23.3403 23.2942 23.1193 23.2942 21.0475H23.9365C24.0777 21.0475 24.1933 21.1632 24.1933 21.3046Z" fill="#B7791D"/>
<path d="M18.2847 22.4612V21.4097C18.2847 21.3516 18.3317 21.3046 18.3898 21.3046H20.6931C20.6931 21.3046 18.8627 21.4974 18.2847 22.4612Z" fill="#FFCC66"/>
<path d="M17.0322 21.4331V20.3816C17.0322 20.3235 17.0793 20.2764 17.1373 20.2764H19.4407C19.4407 20.2764 17.6102 20.4692 17.0322 21.4331Z" fill="#4E5868"/>
<path d="M21.1107 14.493C19.7157 14.493 15.8468 11.5486 15.3779 4.59692H16.9039C17.288 13.1024 21.1107 14.493 21.1107 14.493Z" fill="#FFCC66"/>
<path d="M18.4131 19.5053C18.4131 19.5053 20.2114 18.3486 20.2114 16.6779V19.5053H18.4131Z" fill="#FFCC66"/>
<path d="M15.0734 2.54062V2.92618H14.4312C14.4312 2.7141 14.6033 2.54062 14.8165 2.54062H15.0734Z" fill="#FFCC66"/>
<path d="M27.7836 4.08284C27.7746 4.42986 27.7579 4.77298 27.731 5.11099H26.634L26.7625 4.08284H27.7836Z" fill="#B7791D"/>
<path d="M25.5922 12.1565C25.3404 12.5433 25.072 12.8955 24.7894 13.2078H24.1934L24.6481 12.74L25.1914 12.1784C25.3263 12.1758 25.4599 12.1681 25.5922 12.1565Z" fill="#B7791D"/>
<path d="M0 13.8986V12.792C0.993608 12.792 1.68675 12.5837 2.07944 12.1672C2.47807 11.7508 2.67739 11.0546 2.67739 10.0789V7.223C2.67739 6.40193 2.75473 5.69094 2.90943 5.09001C3.07007 4.48909 3.32889 3.99228 3.68587 3.5996C4.04286 3.20692 4.51884 2.91538 5.11381 2.72499C5.70879 2.53459 6.44358 2.4394 7.31819 2.4394V4.18863C6.62802 4.18863 6.08362 4.29572 5.68499 4.50991C5.2923 4.7241 5.01266 5.05729 4.84607 5.50947C4.68543 5.9557 4.60511 6.52688 4.60511 7.223V10.7928C4.60511 11.2569 4.54263 11.6794 4.41769 12.0601C4.29869 12.4409 4.07558 12.7682 3.74834 13.0419C3.42111 13.3155 2.95405 13.5268 2.34718 13.6755C1.74625 13.8242 0.963859 13.8986 0 13.8986ZM7.31819 25.2864C6.44358 25.2864 5.70879 25.1912 5.11381 25.0009C4.51884 24.8105 4.04286 24.5189 3.68587 24.1262C3.32889 23.7336 3.07007 23.2367 2.90943 22.6358C2.75473 22.0349 2.67739 21.3239 2.67739 20.5028V17.647C2.67739 16.6712 2.47807 15.9751 2.07944 15.5586C1.68675 15.1421 0.993608 14.9339 0 14.9339V13.8272C0.963859 13.8272 1.74625 13.9016 2.34718 14.0503C2.95405 14.1991 3.42111 14.4103 3.74834 14.684C4.07558 14.9577 4.29869 15.2849 4.41769 15.6657C4.54263 16.0465 4.60511 16.4689 4.60511 16.933V20.5028C4.60511 21.199 4.68543 21.7701 4.84607 22.2164C5.01266 22.6626 5.2923 22.9928 5.68499 23.207C6.08362 23.4271 6.62802 23.5372 7.31819 23.5372V25.2864ZM0 14.9339V12.792H2.10621V14.9339H0Z" fill="#3A86FF"/>
<path d="M42.0001 13.8272V14.9339C41.0065 14.9339 40.3133 15.1421 39.9206 15.5586C39.522 15.9751 39.3227 16.6712 39.3227 17.647V20.5028C39.3227 21.3239 39.2453 22.0349 39.0906 22.6358C38.93 23.2367 38.6712 23.7336 38.3142 24.1262C37.9572 24.5189 37.4812 24.8105 36.8863 25.0009C36.2913 25.1912 35.5565 25.2864 34.6819 25.2864L34.6819 23.5372C35.3721 23.5372 35.9165 23.4301 36.3151 23.2159C36.7078 23.0017 36.9874 22.6685 37.154 22.2164C37.3146 21.7701 37.395 21.199 37.395 20.5028L37.395 16.933C37.395 16.4689 37.4574 16.0465 37.5824 15.6657C37.7014 15.2849 37.9245 14.9577 38.2517 14.684C38.579 14.4103 39.046 14.1991 39.6529 14.0503C40.2538 13.9016 41.0362 13.8272 42.0001 13.8272ZM34.6819 2.4394C35.5565 2.4394 36.2913 2.53459 36.8863 2.72499C37.4812 2.91538 37.9572 3.20692 38.3142 3.5996C38.6712 3.99228 38.93 4.48909 39.0907 5.09001C39.2453 5.69094 39.3227 6.40193 39.3227 7.223L39.3227 10.0789C39.3227 11.0546 39.522 11.7508 39.9206 12.1672C40.3133 12.5837 41.0065 12.792 42.0001 12.792V13.8986C41.0362 13.8986 40.2538 13.8242 39.6529 13.6755C39.046 13.5268 38.579 13.3155 38.2517 13.0419C37.9245 12.7682 37.7014 12.4409 37.5824 12.0601C37.4574 11.6794 37.395 11.2569 37.395 10.7928L37.395 7.223C37.395 6.52688 37.3147 5.9557 37.154 5.50947C36.9874 5.06324 36.7078 4.73303 36.3151 4.51884C35.9165 4.29869 35.3721 4.18862 34.6819 4.18862L34.6819 2.4394ZM42.0001 12.792V14.9339H39.8939V12.792H42.0001Z" fill="#3A86FF"/>
</svg>
