<svg width="158" height="569" viewBox="0 0 158 569" fill="none" xmlns="http://www.w3.org/2000/svg">
<path opacity="0.2" d="M78.0944 543.86C39.7237 515.003 0.266806 458.194 0.732397 402.06C1.19799 345.926 41.0756 289.687 63.6654 233.291C86.624 176.039 91.9257 119.487 113.095 72.288C134.265 25.0891 171.373 -11.9381 202.896 4.31138C234.491 21.3797 260.5 91.7245 285.858 159.651C311.215 227.577 335.921 293.086 330.564 343.868C325.206 394.65 290.226 430.668 261.911 466.936C234.035 503.165 212.825 539.644 183.833 557.822C154.331 575.219 116.536 573.535 78.0944 543.86Z" fill="url(#paint0_linear_35_454)"/>
<defs>
<linearGradient id="paint0_linear_35_454" x1="302.65" y1="-9.6892" x2="-166.077" y2="328.618" gradientUnits="userSpaceOnUse">
<stop stop-color="#998DFF"/>
<stop offset="1" stop-color="#008CFF"/>
</linearGradient>
</defs>
</svg>
