<svg width="230" height="798" viewBox="0 0 230 798" fill="none" xmlns="http://www.w3.org/2000/svg">
<path opacity="0.12" d="M-15.06 -26.4443C88.921 -30.7395 206.009 -0.512031 225.904 71.6524C245.798 143.817 170.031 258.368 136.301 354.585C101.996 452.291 110.303 530.174 76.5773 613.127C42.8512 696.08 -33.3872 783.134 -116.019 796.184C-199.13 808.264 -288.635 746.339 -375.65 686.803C-462.666 627.268 -547.193 570.121 -553.205 499.545C-559.217 428.968 -487.767 345.483 -432.595 268.825C-378.477 192.688 -340.638 123.378 -277.047 69.0889C-211.925 15.2498 -119.519 -23.1185 -15.06 -26.4443Z" fill="url(#paint0_linear_35_455)"/>
<defs>
<linearGradient id="paint0_linear_35_455" x1="-353" y1="921" x2="-90.2277" y2="-190.427" gradientUnits="userSpaceOnUse">
<stop stop-color="#8DCCFF"/>
<stop offset="1" stop-color="#008CFF"/>
</linearGradient>
</defs>
</svg>
