<svg width="24" height="24" viewBox="0 0 24 24" fill="none" xmlns="http://www.w3.org/2000/svg">
<path d="M22.92 5.5C22.15 5.85 21.32 6.08 20.46 6.19C21.34 5.66 22.02 4.82 22.34 3.81C21.51 4.31 20.59 4.66 19.62 4.86C18.83 4 17.72 3.5 16.46 3.5C14.11 3.5 12.19 5.42 12.19 7.79C12.19 8.13 12.23 8.46 12.3 8.77C8.74 8.59 5.57 6.88 3.46 4.29C3.09 4.92 2.88 5.66 2.88 6.44C2.88 7.93 3.63 9.25 4.79 10C4.08 10 3.42 9.8 2.84 9.5V9.53C2.84 11.61 4.32 13.35 6.28 13.74C5.65084 13.9129 4.99004 13.9369 4.35 13.81C4.62161 14.6625 5.15354 15.4084 5.87102 15.9429C6.5885 16.4775 7.45545 16.7737 8.35 16.79C6.83367 17.9905 4.95401 18.6394 3.02 18.63C2.68 18.63 2.34 18.61 2 18.57C3.9 19.79 6.16 20.5 8.58 20.5C16.46 20.5 20.79 13.96 20.79 8.29C20.79 8.1 20.79 7.92 20.78 7.73C21.62 7.13 22.34 6.37 22.92 5.5Z" fill="#1D9BF0"/>
</svg>
