<svg width="24" height="24" viewBox="0 0 24 24" fill="none" xmlns="http://www.w3.org/2000/svg">
<path d="M19.9551 6.03299C19.9543 5.91405 19.9607 5.79518 19.9741 5.67699C19.9981 5.44699 20.0361 5.20499 20.0771 4.94099C20.1017 4.78766 20.1264 4.62532 20.1511 4.45399C20.2071 4.05699 20.2701 3.54699 20.1991 3.15599C20.1661 2.97099 20.0671 2.60199 19.7091 2.38599C19.3191 2.15199 18.9201 2.26799 18.6941 2.37299C18.1481 2.62699 17.5031 2.90899 16.9031 3.09799C16.6031 3.19199 16.3321 3.25799 16.1031 3.28599C15.8651 3.31599 15.7211 3.30199 15.6491 3.28099C14.6691 2.99099 13.6081 2.83399 12.5001 2.83399C11.5381 2.83399 10.6101 2.95299 9.74205 3.17399C9.34805 3.27399 8.93105 3.22399 8.43205 3.05899C8.07341 2.93198 7.72161 2.78645 7.37805 2.62299C7.19738 2.53966 7.00338 2.45299 6.79605 2.36299C6.51105 2.24199 6.14605 2.19499 5.79505 2.38499C5.48105 2.55499 5.32305 2.84199 5.24205 3.04699C5.08105 3.44899 5.04205 3.97599 5.02805 4.40199C5.02005 4.65699 5.02005 4.96199 5.01905 5.23199C5.01905 5.40399 5.01905 5.56199 5.01705 5.68399C5.01372 5.86599 5.00605 6.00232 4.99405 6.09299V6.09799C4.21405 7.09799 3.75005 8.28599 3.75005 9.57199C3.75005 11.489 4.78005 13.375 6.39405 14.583C7.18305 15.173 8.10405 15.598 9.10305 15.877C8.87741 16.2833 8.75644 16.7393 8.75105 17.204V18.062H7.41305C7.06605 18.062 6.61205 17.787 6.11705 17.245C5.65505 16.739 5.30305 16.163 5.14105 15.897C4.79405 15.325 4.24705 15.003 3.59105 14.923C3.39347 14.8989 3.19438 14.9542 3.0376 15.0768C2.88082 15.1995 2.77919 15.3794 2.75505 15.577C2.73092 15.7746 2.78626 15.9737 2.90891 16.1304C3.03156 16.2872 3.21147 16.3889 3.40905 16.413C3.65205 16.442 3.77205 16.533 3.85905 16.676L3.86105 16.68C4.02705 16.952 4.44205 17.636 5.00905 18.256C5.54405 18.843 6.38405 19.562 7.41305 19.562H8.75005L8.75105 21C8.75105 21.414 9.08705 21.75 9.50105 21.75H15.9981C16.1966 21.7495 16.3869 21.6702 16.5271 21.5296C16.6673 21.389 16.7461 21.1986 16.7461 21V17.235C16.7461 16.743 16.6041 16.252 16.3581 15.767C17.2441 15.492 18.0661 15.104 18.7621 14.583C20.4121 13.348 21.2501 11.444 21.2501 9.57199C21.2501 8.25699 20.7651 7.04599 19.9551 6.03299Z" fill="white"/>
</svg>
